<svg width="118" height="18" viewBox="0 0 118 18" fill="none" xmlns="http://www.w3.org/2000/svg">
<g clip-path="url(#clip0_1_429)">
<path fill-rule="evenodd" clip-rule="evenodd" d="M9.81253 13.977L4.04489 17.7564L5.85696 11.1031L0.480286 6.78564L7.36785 6.45306L9.81253 0.00537109L12.2572 6.45306L19.1448 6.78564L13.7681 11.1031L15.5802 17.7564L9.81253 13.977Z" fill="#FFC54F"/>
</g>
<g clip-path="url(#clip1_1_429)">
<path fill-rule="evenodd" clip-rule="evenodd" d="M34.3079 13.977L28.5402 17.7564L30.3523 11.1031L24.9756 6.78564L31.8632 6.45306L34.3079 0.00537109L36.7526 6.45306L43.6401 6.78564L38.2635 11.1031L40.0755 17.7564L34.3079 13.977Z" fill="#FFC54F"/>
</g>
<g clip-path="url(#clip2_1_429)">
<path fill-rule="evenodd" clip-rule="evenodd" d="M58.8033 13.977L53.0357 17.7564L54.8477 11.1031L49.4711 6.78564L56.3586 6.45306L58.8033 0.00537109L61.248 6.45306L68.1356 6.78564L62.7589 11.1031L64.571 17.7564L58.8033 13.977Z" fill="#FFC54F"/>
</g>
<g clip-path="url(#clip3_1_429)">
<path fill-rule="evenodd" clip-rule="evenodd" d="M83.2987 13.977L77.531 17.7564L79.3431 11.1031L73.9664 6.78564L80.854 6.45306L83.2987 0.00537109L85.7434 6.45306L92.6309 6.78564L87.2542 11.1031L89.0663 17.7564L83.2987 13.977Z" fill="#FFC54F"/>
</g>
<g clip-path="url(#clip4_1_429)">
<path fill-rule="evenodd" clip-rule="evenodd" d="M107.794 13.977L102.026 17.7564L103.838 11.1031L98.4618 6.78564L105.349 6.45306L107.794 0.00537109L110.239 6.45306L117.126 6.78564L111.75 11.1031L113.562 17.7564L107.794 13.977Z" fill="#FFC54F"/>
</g>
<defs>
<clipPath id="clip0_1_429">
<rect width="19.625" height="17.9896" fill="white" transform="translate(0 0.00537109)"/>
</clipPath>
<clipPath id="clip1_1_429">
<rect width="19.625" height="17.9896" fill="white" transform="translate(24.4954 0.00537109)"/>
</clipPath>
<clipPath id="clip2_1_429">
<rect width="19.625" height="17.9896" fill="white" transform="translate(48.9908 0.00537109)"/>
</clipPath>
<clipPath id="clip3_1_429">
<rect width="19.625" height="17.9896" fill="white" transform="translate(73.4861 0.00537109)"/>
</clipPath>
<clipPath id="clip4_1_429">
<rect width="19.625" height="17.9896" fill="white" transform="translate(97.9815 0.00537109)"/>
</clipPath>
</defs>
</svg>
